<svg id="rcdbLogo" viewBox="0 0 800 800" xmlns="http://www.w3.org/2000/svg" fill="#f0f0f0">
	
	<g transform="translate(0,-252.36218)">

		<g stroke="#f0f0f0" fill="none" stroke-linecap="round">
			<!-- d -->
			<g>
				<g stroke-width="7.69230843">
					<path d="m 183.60385,963.86932 c 75.91539,33.33461 255.24618,-207.88848 400.5385,-538.77674 16.3,-37.11924 31.48077,-73.79616 45.47692,-109.70001"/>
					<path d="m 277.66924,887.2347 c 72.75385,-107.07693 158.81925,-310.52288 211.73464,-520.83444 3.95,-15.69615 7.73461,-31.29231 11.35385,-46.76538"/>
					<path d="m 183.43077,964.73855 c 78.47308,26.75384 236.6231,-228.85771 353.22696,-570.91136 8.98077,-26.34231 17.45385,-52.43077 25.40385,-78.1577"/>
				</g>
				<g stroke-width="3.84615421">
					<path d="M 387.19233,499.19258 C 372.08078,485.05796 354.5577,473.77335 334.83463,466.04643 229.1077,424.62719 100.21923,501.25027 46.969211,637.18855 -6.2846158,773.127 36.25771,916.90777 141.98461,958.32701 c 16.40385,6.42692 36.53847,9.81923 53.68462,10.78461"/>
					<path d="M 362.99232,565.13874 C 350.14617,553.12335 335.25386,543.53105 318.48847,536.96566 228.61923,501.75797 119.06538,566.88874 73.799993,682.43853"/>
					<path d="m 53.315365,677.25779 c 0.230769,-0.58847 8.538462,-23.10001 8.773078,-23.68847 C 110.43461,532.33104 223.46539,464.20796 318.16155,501.30797 c 17.75,6.95384 35.82692,14.80384 49.43077,27.52307"/>
				</g>					
			</g>
			<!-- b -->
			<g transform="matrix(3.8461541,0,0,3.8461541,-1994.2309,-1414.5461)">
				<path d="m 678.36,532.813 c 0.491,0.169 0.978,0.356 1.461,0.562 15.852,6.731 21.074,34.654 11.663,56.814 -9.41,22.161 -29.89,34.668 -45.742,27.937"/>
				<path d="m 641.517,616.781 c 14.267,6.058 32.699,-5.199 41.168,-25.143 8.469,-19.944 2.87,-39.524 -11.397,-45.583"/>
				<path d="M 696.859,450.561 C 647.353,530.42 622.072,604.368 640.394,615.726"/>
				<path d="m 721.45,461.124 c -60.847,71.595 -96.859,140.954 -80.433,154.914"/>
				<path d="M 708.438,454.887 C 653.637,531.21 623.406,603.278 640.917,615.85"/>
				<path d="m 641.438,615.812 c 18.25,9.312 36.842,-3.912 45.5,-24.299 8.658,-20.388 3.554,-45.776 -11.03,-51.969 -0.444,-0.189 -0.892,-0.361 -1.344,-0.517"/>
			</g>
		</g>

		<!-- Track Ties-->
		<g transform="matrix(3.8461541,0,0,3.8461541,-1994.2309,-1414.5461)">
			<polygon points="672.838,546.488 678.438,540.888 679.821,533.375 680.638,542.188"/>
			<polygon points="675.938,548.188 682.838,545.087 683.938,535.987 684.638,546.587"/>
			<polygon points="679.138,551.288 686.338,549.888 688.138,539.987 687.638,552.087"/>
			<polygon points="681.938,555.288 688.638,555.588 692.338,546.788 689.438,557.588"/>
			<polygon points="684.138,559.788 690.038,560.288 694.938,553.988 690.538,563.188"/>
			<polygon points="685.738,564.888 690.738,566.488 695.838,560.888 691.138,569.088"/>
			<polygon points="686.638,570.788 690.938,572.688 696.038,568.388 691.038,575.088"/>
			<polygon points="686.638,575.788 690.138,578.688 695.438,574.888 689.838,581.288"/>
			<polygon points="685.638,581.488 688.738,584.888 694.438,580.688 688.338,586.888"/>
			<polygon points="684.138,587.388 686.738,591.288 692.538,586.988 686.038,593.688"/>
			<polygon points="682.038,592.988 683.738,596.188 690.538,592.388 683.138,598.588"/>
			<polygon points="680.438,596.988 681.238,600.988 686.838,599.388 680.238,602.788"/>
			<polygon points="676.938,601.388 677.538,605.588 683.138,604.588 676.738,606.788"/>
			<polygon points="674.038,605.388 674.038,609.088 678.838,608.888 672.538,610.688"/>
			<polygon points="695.388,452.037 703.638,461.187 719.988,462.537 700.038,466.737"/>
			<polygon points="689.688,461.787 694.638,473.637 712.488,471.687 691.938,478.437"/>
			<polygon points="683.088,472.887 686.538,485.337 704.388,482.487 684.738,488.937"/>
			<polygon points="677.088,483.687 681.138,494.937 696.588,492.087 678.888,498.687"/>
			<polygon points="672.438,492.687 675.438,504.537 690.288,500.037 673.038,508.437"/>
			<polygon points="666.738,503.487 669.738,513.837 682.938,510.537 667.638,518.188"/>
			<polygon points="661.788,513.837 663.288,525.538 676.488,520.287 661.638,528.987"/>
			<polygon points="657.288,522.837 658.788,534.237 669.738,529.587 657.288,537.987"/>
			<polygon points="652.788,532.587 654.438,543.087 665.388,537.688 652.938,546.837"/>
			<polygon points="649.038,543.988 650.688,550.288 658.188,549.087 650.088,552.688"/>
			<polygon points="646.188,551.938 648.138,556.588 654.738,555.688 647.238,559.288"/>
			<polygon points="648.738,452.487 661.938,456.987 681.138,451.287 660.138,462.987"/>
			<polygon points="646.338,462.087 657.738,470.787 676.638,462.987 655.938,476.787"/>
			<polygon points="643.338,472.887 652.938,483.387 671.538,474.987 650.238,490.887"/>
			<polygon points="639.438,486.687 647.538,498.387 665.238,489.687 644.838,505.287"/>
			<polygon points="634.938,501.687 642.138,511.287 657.738,504.987 639.138,519.087"/>
			<polygon points="629.538,517.587 634.938,527.487 649.938,522.087 632.837,533.188"/>
			<polygon points="625.375,529.375 629.238,540.087 642.438,534.688 627.138,545.488"/>
			<polygon points="619.812,543.312 623.562,551.938 634.038,549.388 621.438,556.888"/>
			<polygon points="616.038,553.888 617.837,561.988 627.738,559.888 616.038,566.188"/>
			<polygon points="611.237,563.488 613.038,571.588 621.737,569.188 610.938,576.088"/>
			<polygon points="605.837,575.188 607.637,580.888 614.837,579.688 606.137,583.288"/>
			<polygon points="602.438,588.888 600.637,592.488 601.037,582.888"/>
			<polygon points="616.438,496.087 608.837,501.287 609.637,512.087 605.037,499.487"/>
			<polygon points="607.438,489.687 599.438,497.087 600.837,506.887 595.437,496.087"/>
			<polygon points="597.237,485.887 588.237,494.887 591.237,505.087 584.637,495.087"/>
			<polygon points="586.237,485.687 579.437,495.287 584.837,504.887 575.437,496.687"/>
			<polygon points="575.037,488.087 571.037,497.487 578.037,506.087 567.637,500.287"/>
			<polygon points="565.837,491.887 564.837,501.287 571.037,508.287 560.637,504.087"/>
			<polygon points="557.637,497.487 556.637,506.287 564.237,511.687 554.437,508.687"/>
			<polygon points="549.437,504.087 551.037,512.287 559.837,514.688 548.237,515.087"/>
			<polygon points="542.837,511.887 544.037,519.688 553.637,521.087 542.237,522.887"/>
			<polygon points="537.637,519.487 538.837,528.487 547.437,527.887 537.037,531.487"/>
			<polygon points="532.437,528.288 535.437,535.288 542.237,535.487 534.644,537.71"/>
			<polygon points="530.437,534.688 533.437,540.688 540.037,540.288 532.637,542.487"/>
		</g>
    
		<!-- Train -->
		<g transform="matrix(3.8461541,0,0,3.8461541,-1994.2309,-1414.5461)">
			<path d="m 529.631,563.791 1.099,3.41 -1.268,1.449 0.846,3.325 1.606,-1.62 1.606,3.325 -1.606,1.62 1.015,3.069 1.015,-0.853 c 0,0 0.338,-0.426 0.761,-0.341 0.423,0.085 7.949,2.983 7.949,2.983 l 0.422,0.938 -1.86,-0.085 -0.592,1.535 -0.507,0.17 -0.253,0.853 -0.592,0.085 v -1.023 l -0.93,-0.511 -0.338,-1.62 -2.452,-0.341 -0.677,1.279 h -0.761 l -0.93,1.193 h -0.508 l -0.676,-1.96 -1.015,0.426 -3.382,-12.276 0.507,-2.046 -0.169,-0.767 -0.253,-0.768 1.943,-1.449 z"/>
			<path d="m 527.094,569.077 0.592,-2.131 -0.423,-1.96 -0.676,-0.597 c 0,0 0.507,1.62 0.507,2.131 0,0.512 -0.338,1.705 -0.338,1.705 l 0.338,0.852 z"/>
			<path d="m 532.083,588.961 0.317,-1.407 c 0,0 0.253,-0.448 -0.063,-0.767 -0.317,-0.32 -1.459,-1.854 -1.459,-1.854 l -0.19,0.256 1.015,1.471 c 0,0 0.444,0.383 0.38,0.639 -0.064,0.256 -0.38,1.343 -0.38,1.343 v 0.895 l 0.38,-0.576 z"/>
			<polygon points="568.698,598.146 570.22,599.596 571.911,598.743 573.433,599.681 576.478,598.743 565.992,608.206 565.907,608.461 566.753,610.593 564.724,610.678 563.54,608.376 560.326,608.888 560.157,607.353 561.256,606.5 560.58,604.54 562.525,603.176 563.793,604.455 565.484,603.688 566.668,604.54 567.599,603.688 567.176,602.409 567.683,601.386 567.006,599.51"/>
			<polygon points="559.819,609.143 560.749,611.53 558.889,611.53 557.874,609.655 555.422,609.74 555.253,607.609 556.352,606.756 555.76,605.478 557.874,604.114 559.396,605.819 560.496,605.563 560.918,606.33 559.903,607.097"/>
			<path d="M 566.753,608.546"/>
			<path d="m 555.929,614.599 1.86,0.085 c 0,0 0.338,0 0.761,0.256 0.423,0.255 1.015,0.852 1.015,0.852 l -0.423,0.085 c 0,0 -0.338,-0.597 -0.93,-0.767 -0.592,-0.17 -2.283,-0.511 -2.283,-0.511 z"/>
			<path d="m 570.051,615.025 -0.846,-1.279 c 0,0 -0.55,-0.496 0.042,-0.666 0.592,-0.17 4.392,-1.135 4.392,-1.135 0,0 0.47,-0.245 0.724,0.096 0.254,0.341 2.209,1.135 2.209,1.135 l -1.062,0.416 -1.231,-1.039 c 0,0 -0.084,-0.085 -0.507,-0.085 -0.423,0 -3.975,0.938 -3.975,0.938 0,0 -0.423,0.17 -0.169,0.426 0.254,0.256 0.676,1.108 0.676,1.108 l -0.253,0.085 z"/>
			<path d="m 572.928,615.469 c -0.466,-0.611 -0.664,-1.292 -0.548,-1.741 -0.337,-0.2 -0.669,-0.28 -0.925,-0.2 l -0.017,-0.022 -0.695,0.377 c -0.053,0.021 -0.103,0.046 -0.148,0.081 -0.445,0.345 -0.301,1.288 0.322,2.106 0.61,0.802 1.453,1.185 1.906,0.877 l 0.516,-0.263 c 0.069,-0.021 0.133,-0.052 0.189,-0.096 0.112,-0.087 0.187,-0.212 0.226,-0.363 -0.286,-0.169 -0.575,-0.427 -0.826,-0.756 z"/>
			<path d="m 575.748,615.901 c 0.445,-0.344 0.301,-1.288 -0.322,-2.106 -0.546,-0.718 -1.278,-1.102 -1.751,-0.954 l -0.017,-0.022 -0.695,0.378 c -0.053,0.02 -0.103,0.045 -0.148,0.081 -0.445,0.344 -0.301,1.287 0.322,2.106 0.61,0.802 1.453,1.186 1.906,0.877 l 0.516,-0.263 c 0.069,-0.021 0.132,-0.053 0.189,-0.097 z"/>
			<path d="m 584.71,606.161 c 0.15,-0.19 0.304,-0.396 0.458,-0.61 -0.025,-0.041 -0.047,-0.081 -0.075,-0.121 -0.492,0.7 -0.988,1.33 -1.398,1.692 -0.107,0.094 -0.249,0.213 -0.412,0.347 0.495,0.388 1.019,0.523 1.342,0.302 l 0.516,-0.263 c 0.069,-0.021 0.133,-0.052 0.189,-0.096 0.213,-0.165 0.289,-0.467 0.243,-0.826 -0.269,-0.043 -0.571,-0.189 -0.863,-0.425 z"/>
			<path d="m 586.385,603.591 c -0.492,0.785 -1.067,1.65 -1.602,2.328 0.507,0.412 1.05,0.559 1.382,0.333 l 0.516,-0.263 c 0.069,-0.021 0.132,-0.053 0.189,-0.097 0.446,-0.344 0.301,-1.288 -0.322,-2.106 -0.052,-0.069 -0.107,-0.132 -0.163,-0.195 z"/>
			<path d="M 561.7,615.942"/>
			<path d="m 569.248,614.919 -7.928,0.895 1.142,1.215 8.372,-0.32 c 0,0 -0.507,-0.447 -0.761,-0.767 -0.253,-0.32 -0.401,-1.044 -0.401,-1.044 l -0.424,0.021 z"/>
			<polygon points="566.901,602.068 566.837,602.387 567.345,603.41 566.583,604.05 565.442,603.283 563.856,604.114 562.588,602.835 562.145,603.091 561.764,601.364 563.603,600.213 564.745,601.364 566.013,601.109"/>
			<path d="m 553.646,611.146 -0.042,-1.577 c 0,0 -0.042,-0.255 0.085,-0.255 0.127,0 1.268,0.469 1.268,0.469 l -0.169,0.469 -0.93,-0.597 0.169,1.705 -0.381,-0.214 z"/>
			<polygon points="542.78,604.753 540.539,603.474 541.173,603.432 542.991,604.625 544.429,606.842 544.048,606.97"/>
			<polygon points="554.915,613.789 545.613,608.76 544.81,607.183 553.35,610.934 553.392,611.53 554.069,611.829"/>
			<polygon points="556.098,599.468 555.802,597.976 556.69,597.208 556.563,595.291 558.424,594.566 559.734,596.398 561.087,596.74 561.806,598.019 562.905,598.146 563.624,599.169 552.885,603.943 552.8,606.032 550.306,605.051 550.517,602.792 547.685,601.386 547.769,601.215 548.065,600.192 549.249,599.724 549.333,597.763 551.913,596.825 552.8,598.743 554.153,598.53 555.253,599.809"/>
			<path d="m 556.204,613.704 -0.677,-0.853 -0.837,-1.918 c -0.172,0.419 -0.119,1.086 0.182,1.748 0.324,0.712 0.839,1.209 1.292,1.304 l 0.04,-0.281 z"/>
			<path d="m 587.597,599.212 -9.556,-1.449 -11.838,10.741 0.93,2.302 -2.621,0.256 -1.184,-2.387 -3.129,0.597 0.93,2.558 h -2.368 l -1.015,-1.961 -2.706,0.256 -0.169,0.597 0.93,2.131 0.676,0.853 -0.084,0.597 c 0,0 0.169,0 1.353,0.085 1.184,0.085 2.283,1.364 2.283,1.364 l 1.269,-0.17 8.287,-0.853 c 0,0 -0.592,-0.682 -0.845,-1.279 -0.254,-0.597 0.676,-0.853 0.676,-0.853 0,0 3.805,-0.938 4.397,-1.023 0.592,-0.085 0.93,0.256 0.93,0.256 l 1.607,1.023 c 0,0 6.342,-4.688 7.695,-5.882 1.353,-1.194 3.636,-5.286 3.636,-5.286 l -0.084,-2.473 z m -10.486,9.974 -0.676,2.984 -0.169,-2.813 -9.556,-0.853 9.471,0.085 11.331,-9.122 -10.401,9.719 z"/>
			<polygon points="545.021,602.366 544.979,600.021 541.723,598.871 542.484,597.251 543.921,596.74 543.964,595.12 546.374,594.396 546.839,595.887 548.742,595.887 549.164,596.74 550.729,596.143 550.56,595.333 550.982,594.736 550.855,593.415 552.631,592.605 553.73,594.14 554.83,594.31 555.295,595.375 555.591,595.631 556.268,595.887 556.479,596.271 556.479,596.953 555.464,597.72 555.845,599.126 555.21,599.468 554.238,598.189 552.885,598.317 551.955,596.398 549.08,597.507 549.038,599.34 547.812,599.851 547.473,601.045 546.966,600.874 546.839,603.304"/>
			<path d="m 541.66,598.104 -0.603,-1.055 c 0,0 -0.159,-0.032 -0.349,-0.032 -0.19,0 -0.286,0.16 -0.286,0.16 l -0.634,1.406 0.222,0.256 0.571,-1.534 0.19,-0.064 0.19,0.032 0.666,1.311 0.033,-0.48 z"/>
			<path d="m 540.819,602.259 0.55,-0.341 -0.127,-2.856 -0.022,-0.371 c -0.043,-0.038 -0.089,-0.07 -0.141,-0.094 -0.511,-0.233 -1.268,0.341 -1.688,1.282 -0.413,0.921 -0.35,1.852 0.134,2.108 l 0.474,0.334 c 0.051,0.051 0.108,0.093 0.174,0.122 0.194,0.089 0.424,0.06 0.658,-0.061 l -0.012,-0.123 z"/>
			<polygon points="539.25,598.359 539.693,598.871 539.123,599.638 538.679,600.277 532.146,590.623 532.337,588.961 539.63,597.592"/>
			<path d="m 566.203,600.235 c -0.19,-0.511 -1.015,-1.343 -1.015,-1.343 l -12.113,5.307 -0.063,2.238 -2.917,-1.023 0.126,-2.43 -3.044,-1.406 -0.063,2.429 -2.283,-1.278 -0.063,-2.366 -3.298,-1.023 0.127,2.856 -0.55,0.341 0.042,0.469 2.072,1.279 1.311,2.089 8.984,4.028 c 0,0 -0.126,-1.151 0,-1.471 0.127,-0.32 0.444,0.064 0.444,0.064 l 1.268,0.575 -0.253,-2.237 1.015,-0.896 -0.571,-1.215 2.537,-1.47 1.585,1.534 0.825,-0.255 -0.254,-0.64 1.628,-1.129 -0.106,-2.323 1.966,-1.151 1.395,1.151 1.079,-0.383 0.317,0.447 c -10e-4,-0.001 0.063,-0.256 -0.128,-0.768 z m -11.415,6.82 -1.522,-2.621 2.029,2.109 -0.507,0.512 z"/>
			<polygon points="550.348,591.923 541.808,592.435 540.539,593.969 538.933,592.179 540.116,590.048 537.41,587.746 538.679,586.723 540.032,586.723 540.962,585.104 543.33,585.359 542.991,587.49 544.006,587.831 544.175,589.195 544.514,589.11 545.021,587.661 545.274,587.49 545.782,585.956 548.319,586.041 548.403,588.001 549.08,589.11 549.164,591.156"/>
			<polygon points="539.017,583.995 540.201,583.995 540.624,583.057 540.962,582.802 541.385,581.267 543.837,581.438 544.006,583.398 545.359,583.825 546.036,585.359 545.359,585.529 544.852,587.234 544.429,587.917 544.26,587.234 543.414,587.064 543.752,585.359 543.33,585.018 540.793,584.677 539.778,586.297 538.171,586.211 537.326,587.32 536.818,587.149 536.058,588.684 534.789,587.234 535.465,585.444 533.183,582.972 534.282,581.864 535.042,582.034 535.635,580.67 537.749,580.756 538.002,582.46 538.848,582.887"/>
			<polygon points="531.407,581.779 531.66,583.398 532.083,582.802 531.745,581.182 530.223,581.693 530.392,582.29"/>
			<polygon points="529.8,584.762 526.671,570.44 527.432,569.503 530.477,581.011 529.884,581.353 530.138,582.375"/>
			<polygon points="532.167,570.185 534.113,570.185 534.958,569.247 537.495,569.929 537.664,570.782 536.818,572.231 537.58,573.254 538.51,573.424 538.933,572.913 540.116,571.463 542.738,572.572 541.892,574.533 542.23,576.152 541.131,577.942 541.977,579.477 534.705,576.664 534.113,576.749 533.013,577.772 532.252,575.47 533.943,573.851"/>
			<polygon points="538.002,570.782 537.749,569.673 534.789,568.906 533.943,569.844 531.914,569.759 530.477,571.208 529.8,568.735 531.237,567.457 530.223,563.962 531.153,563.706 531.914,563.876 533.098,562.938 535.042,563.706 534.705,565.667 535.296,566.434 535.127,567.201 535.719,567.286 537.664,565.24 539.778,566.093 539.017,567.798 539.271,568.65 539.017,569.673 539.863,570.355 539.524,571.634 538.425,572.998 537.833,572.913 537.241,572.146"/>
			<path d="m 538.933,564.729 -5.581,-5.115 h -2.199 l 0.254,-3.496 1.691,-0.853 v -3.239 l -1.775,0.256 v -3.41 l 2.283,-0.597 0.085,-3.154 -2.453,-0.085 -1.099,0.853 -0.254,1.364 -0.507,0.085 -0.422,12.702 0.845,0.341 c 0,0 0.508,0.256 0.508,0.597 0,0.341 -0.592,2.472 -0.592,2.472 l 0.507,0.17 0.761,-0.426 0.846,0.256 1.353,-0.938 1.945,0.938 0.253,0.256 -0.253,1.79 0.423,0.767 0.253,0.256 1.606,-1.62 1.607,0.512 -0.085,-0.682 z"/>
			<path d="m 529.292,563.194 0.507,-2.046 c 0,0 -0.169,-0.426 -0.423,-0.511 -0.253,-0.085 -1.099,-0.682 -1.099,-0.682 l -0.253,0.426 1.353,0.767 -0.507,1.875 0.422,0.171 z"/>
			<polygon points="529.377,544.525 529.292,546.315 528.955,546.742 527.939,546.997 528.109,547.423 529.462,546.997 529.631,546.571 529.884,544.61"/>
			<polygon points="528.024,559.443 527.855,559.87 527.686,560.552 526.84,561.831 527.771,548.021 528.87,547.594 528.532,559.443"/>
			<path d="m 531.322,586.339 -0.983,-1.422 0.301,-0.592 c 0,0 0.817,1.163 1.252,1.679 0.046,-0.265 0.012,-0.337 0.019,-0.453 l -0.589,-0.698 0.417,-0.84 c -0.174,-0.547 -0.456,-0.904 -0.776,-0.904 -0.529,0 -0.957,0.972 -0.957,2.17 0,1.198 0.428,2.17 0.957,2.17 0.316,0 0.47,-0.157 0.645,-0.694 -0.099,-0.215 -0.286,-0.416 -0.286,-0.416 z"/>
			<path d="m 550.713,593.09 2.029,-0.703 -10.781,0.384 -1.269,1.854 -2.22,-2.43 1.142,-2.11 -2.727,-2.366 -0.698,1.791 -1.712,-1.918 0.698,-2.174 -2.537,-2.429 -0.999,2.078 1.078,1.279 0.047,0.799 -0.253,1.406 7.61,8.823 c 0,0 0.317,-0.767 0.571,-0.767 0.254,0 0.444,0.128 0.444,0.128 l 0.825,1.151 0.507,-1.023 1.078,-0.384 0.127,-1.79 3.044,-0.767 0.317,1.662 H 549 l 0.317,0.767 1.078,-0.511 -0.126,-0.767 0.507,-0.576 -0.063,-1.407 z m -8.181,3.197 -0.634,-2.941 0.253,-0.256 0.825,2.877 -0.444,0.32 z"/>
			<path d="m 526.851,565.72 c -0.15,-0.625 -0.381,-1.487 -0.381,-1.487 l 0.92,0.576 0.063,0.511 c 0.328,-0.301 0.562,-0.676 0.79,-1.289 0.417,-1.123 0.354,-2.184 -0.14,-2.371 -0.494,-0.187 -1.234,0.571 -1.651,1.693 -0.417,1.123 -0.355,2.184 0.14,2.371 0.111,0.042 0.13,0.043 0.259,-0.004 z"/>
			<polygon points="533.415,552.069 534.747,553.029 536.586,552.453 537.791,553.668 536.459,555.075 536.84,556.098 536.396,556.993 537.41,558.08 538.235,557.376 539.44,557.504 540.582,556.929 541.913,558.719 540.455,559.678 539.63,561.148 538.615,562.107 538.298,563.834 533.605,559.422 531.576,559.422 531.83,556.289 533.479,555.395"/>
			<polygon points="538.298,557.121 537.41,557.632 536.776,557.057 537.157,556.226 536.966,555.33 538.235,553.732 536.649,552.133 534.874,552.709 533.352,551.622 531.703,551.942 531.703,549.064 533.859,548.617 534.049,545.229 535.317,546.124 536.649,545.996 537.537,547.658 536.459,548.425 536.84,549.32 535.635,550.663 536.713,551.43 537.854,550.599 538.552,551.046 539.757,550.727 541.089,552.517 540.074,553.668 540.201,554.563 538.806,555.586 539.123,557.121"/>
		</g>
	</g>
</svg>